<svg width="318" height="66" viewBox="0 0 318 66" fill="none" xmlns="http://www.w3.org/2000/svg">
<path d="M15.9869 40.132H10.2756V52.8689H3.10656V18.0754H16.0346C20.1449 18.0754 23.3152 18.9914 25.5455 20.8235C27.7759 22.6556 28.891 25.2444 28.891 28.5899C28.891 30.9636 28.3733 32.9471 27.3378 34.5402C26.3182 36.1174 24.7649 37.3759 22.6779 38.3158L30.2054 52.5343V52.8689H22.5106L15.9869 40.132ZM10.2756 34.3251H16.0585C17.8588 34.3251 19.2527 33.8711 20.2405 32.963C21.2282 32.039 21.722 30.7725 21.722 29.1634C21.722 27.5225 21.2521 26.2321 20.3121 25.2922C19.3881 24.3522 17.9623 23.8823 16.0346 23.8823H10.2756V34.3251ZM41.1978 52.8689H34.2678V27.0127H41.1978V52.8689ZM33.8615 20.3217C33.8615 19.2862 34.2041 18.4338 34.8891 17.7647C35.5901 17.0956 36.538 16.7611 37.7328 16.7611C38.9117 16.7611 39.8516 17.0956 40.5526 17.7647C41.2536 18.4338 41.604 19.2862 41.604 20.3217C41.604 21.3731 41.2456 22.2334 40.5287 22.9025C39.8277 23.5716 38.8958 23.9062 37.7328 23.9062C36.5698 23.9062 35.6299 23.5716 34.913 22.9025C34.212 22.2334 33.8615 21.3731 33.8615 20.3217ZM56.5872 44.4334L61.3905 27.0127H68.6073L59.885 52.8689H53.2895L44.5672 27.0127H51.784L56.5872 44.4334ZM83.232 53.3468C79.4404 53.3468 76.3498 52.1839 73.9601 49.8579C71.5864 47.532 70.3995 44.4334 70.3995 40.5621V39.893C70.3995 37.2963 70.9013 34.9783 71.905 32.9391C72.9086 30.884 74.3265 29.3068 76.1586 28.2076C78.0066 27.0924 80.1095 26.5348 82.4673 26.5348C86.004 26.5348 88.784 27.65 90.8072 29.8803C92.8464 32.1107 93.866 35.273 93.866 39.3673V42.1871H77.4012C77.6242 43.8758 78.2934 45.2299 79.4085 46.2495C80.5396 47.2691 81.9655 47.7789 83.686 47.7789C86.3465 47.7789 88.4255 46.8151 89.9231 44.8874L93.3164 48.687C92.2809 50.1526 90.8789 51.2997 89.1106 52.1281C87.3422 52.9406 85.3827 53.3468 83.232 53.3468ZM82.4434 32.1266C81.0733 32.1266 79.9582 32.5886 79.0979 33.5126C78.2535 34.4366 77.7119 35.7589 77.4729 37.4795H87.0794V36.9298C87.0475 35.4005 86.6333 34.2216 85.8367 33.3931C85.0402 32.5488 83.9091 32.1266 82.4434 32.1266ZM112.338 33.4887C111.398 33.3613 110.57 33.2975 109.853 33.2975C107.24 33.2975 105.528 34.1817 104.715 35.9501V52.8689H97.8089V27.0127H104.333L104.524 30.0954C105.91 27.7217 107.83 26.5348 110.283 26.5348C111.048 26.5348 111.765 26.6384 112.434 26.8455L112.338 33.4887ZM143.452 41.279C143.181 45.0228 141.795 47.9701 139.294 50.1208C136.808 52.2715 133.526 53.3468 129.448 53.3468C124.987 53.3468 121.475 51.8493 118.91 48.8543C116.361 45.8433 115.086 41.7171 115.086 36.4758V34.349C115.086 31.0035 115.676 28.0562 116.855 25.5072C118.033 22.9583 119.714 21.0067 121.897 19.6526C124.095 18.2825 126.644 17.5975 129.544 17.5975C133.558 17.5975 136.792 18.6728 139.246 20.8235C141.699 22.9742 143.117 25.9931 143.499 29.8803H136.33C136.155 27.634 135.526 26.0091 134.442 25.0054C133.375 23.9858 131.742 23.476 129.544 23.476C127.154 23.476 125.362 24.3363 124.167 26.0569C122.988 27.7615 122.383 30.414 122.351 34.0144V36.6431C122.351 40.4028 122.916 43.1509 124.047 44.8874C125.194 46.6239 126.995 47.4922 129.448 47.4922C131.663 47.4922 133.311 46.9903 134.395 45.9867C135.494 44.9671 136.123 43.3979 136.283 41.279H143.452ZM154.994 52.8689H148.064V27.0127H154.994V52.8689ZM147.657 20.3217C147.657 19.2862 148 18.4338 148.685 17.7647C149.386 17.0956 150.334 16.7611 151.529 16.7611C152.707 16.7611 153.647 17.0956 154.348 17.7647C155.049 18.4338 155.4 19.2862 155.4 20.3217C155.4 21.3731 155.041 22.2334 154.324 22.9025C153.624 23.5716 152.692 23.9062 151.529 23.9062C150.366 23.9062 149.426 23.5716 148.709 22.9025C148.008 22.2334 147.657 21.3731 147.657 20.3217ZM168.973 20.6562V27.0127H173.394V32.0788H168.973V44.983C168.973 45.9389 169.156 46.6239 169.523 47.0381C169.889 47.4523 170.59 47.6594 171.626 47.6594C172.39 47.6594 173.067 47.6037 173.657 47.4922V52.7255C172.303 53.1397 170.909 53.3468 169.475 53.3468C164.632 53.3468 162.163 50.9014 162.067 46.0106V32.0788H158.291V27.0127H162.067V20.6562H168.973ZM186.896 43.0952L191.675 27.0127H199.083L188.688 56.8835L188.114 58.2456C186.569 61.623 184.02 63.3117 180.467 63.3117C179.464 63.3117 178.444 63.1604 177.409 62.8577V57.6243L178.46 57.6482C179.766 57.6482 180.738 57.4491 181.375 57.0508C182.029 56.6525 182.538 55.9914 182.905 55.0674L183.717 52.9406L174.661 27.0127H182.092L186.896 43.0952Z" fill="black" fill-opacity="0.31"/>
<path d="M214.448 52.8689V18.0754H225.154C228.213 18.0754 230.945 18.7684 233.351 20.1544C235.772 21.5245 237.66 23.484 239.014 26.033C240.368 28.566 241.045 31.4495 241.045 34.6836V36.2846C241.045 39.5186 240.376 42.3942 239.038 44.9113C237.716 47.4284 235.844 49.38 233.422 50.766C231.001 52.152 228.269 52.853 225.226 52.8689H214.448ZM221.617 23.8823V47.1098H225.082C227.886 47.1098 230.029 46.1938 231.511 44.3617C232.992 42.5296 233.749 39.909 233.781 36.4997V34.6597C233.781 31.123 233.048 28.4465 231.582 26.6304C230.117 24.7983 227.974 23.8823 225.154 23.8823H221.617ZM257.725 53.3468C253.934 53.3468 250.843 52.1839 248.453 49.8579C246.08 47.532 244.893 44.4334 244.893 40.5621V39.893C244.893 37.2963 245.395 34.9783 246.398 32.9391C247.402 30.884 248.82 29.3068 250.652 28.2076C252.5 27.0924 254.603 26.5348 256.961 26.5348C260.497 26.5348 263.277 27.65 265.3 29.8803C267.34 32.1107 268.359 35.273 268.359 39.3673V42.1871H251.894C252.118 43.8758 252.787 45.2299 253.902 46.2495C255.033 47.2691 256.459 47.7789 258.179 47.7789C260.84 47.7789 262.919 46.8151 264.416 44.8874L267.81 48.687C266.774 50.1526 265.372 51.2997 263.604 52.1281C261.835 52.9406 259.876 53.3468 257.725 53.3468ZM256.937 32.1266C255.567 32.1266 254.451 32.5886 253.591 33.5126C252.747 34.4366 252.205 35.7589 251.966 37.4795H261.573V36.9298C261.541 35.4005 261.127 34.2216 260.33 33.3931C259.533 32.5488 258.402 32.1266 256.937 32.1266ZM281.646 44.4334L286.449 27.0127H293.666L284.944 52.8689H278.348L269.626 27.0127H276.843L281.646 44.4334Z" fill="#040404" fill-opacity="0.33"/>
<path d="M15.9869 32.2631H10.2756V45H3.10656V10.2065H16.0346C20.1449 10.2065 23.3152 11.1225 25.5455 12.9546C27.7759 14.7867 28.891 17.3755 28.891 20.721C28.891 23.0947 28.3733 25.0782 27.3378 26.6713C26.3182 28.2485 24.7649 29.507 22.6779 30.4469L30.2054 44.6654V45H22.5106L15.9869 32.2631ZM10.2756 26.4562H16.0585C17.8588 26.4562 19.2527 26.0022 20.2405 25.0941C21.2282 24.1701 21.722 22.9036 21.722 21.2945C21.722 19.6536 21.2521 18.3632 20.3121 17.4233C19.3881 16.4833 17.9623 16.0134 16.0346 16.0134H10.2756V26.4562ZM41.1978 45H34.2678V19.1438H41.1978V45ZM33.8615 12.4528C33.8615 11.4173 34.2041 10.5649 34.8891 9.89584C35.5901 9.22673 36.538 8.89218 37.7328 8.89218C38.9117 8.89218 39.8516 9.22673 40.5526 9.89584C41.2536 10.5649 41.604 11.4173 41.604 12.4528C41.604 13.5042 41.2456 14.3645 40.5287 15.0336C39.8277 15.7027 38.8958 16.0373 37.7328 16.0373C36.5698 16.0373 35.6299 15.7027 34.913 15.0336C34.212 14.3645 33.8615 13.5042 33.8615 12.4528ZM56.5872 36.5645L61.3905 19.1438H68.6073L59.885 45H53.2895L44.5672 19.1438H51.784L56.5872 36.5645ZM83.232 45.4779C79.4404 45.4779 76.3498 44.315 73.9601 41.989C71.5864 39.6631 70.3995 36.5645 70.3995 32.6932V32.0241C70.3995 29.4274 70.9013 27.1094 71.905 25.0702C72.9086 23.0151 74.3265 21.4379 76.1586 20.3387C78.0066 19.2235 80.1095 18.6659 82.4673 18.6659C86.004 18.6659 88.784 19.7811 90.8072 22.0114C92.8464 24.2418 93.866 27.4041 93.866 31.4984V34.3182H77.4012C77.6242 36.0069 78.2934 37.361 79.4085 38.3806C80.5396 39.4002 81.9655 39.91 83.686 39.91C86.3465 39.91 88.4255 38.9462 89.9231 37.0185L93.3164 40.8181C92.2809 42.2837 90.8789 43.4308 89.1106 44.2592C87.3422 45.0717 85.3827 45.4779 83.232 45.4779ZM82.4434 24.2577C81.0733 24.2577 79.9582 24.7197 79.0979 25.6437C78.2535 26.5677 77.7119 27.89 77.4729 29.6106H87.0794V29.0609C87.0475 27.5316 86.6333 26.3527 85.8367 25.5242C85.0402 24.6799 83.9091 24.2577 82.4434 24.2577ZM112.338 25.6198C111.398 25.4924 110.57 25.4287 109.853 25.4287C107.24 25.4287 105.528 26.3128 104.715 28.0812V45H97.8089V19.1438H104.333L104.524 22.2265C105.91 19.8528 107.83 18.6659 110.283 18.6659C111.048 18.6659 111.765 18.7695 112.434 18.9766L112.338 25.6198ZM143.452 33.4101C143.181 37.1539 141.795 40.1012 139.294 42.2519C136.808 44.4026 133.526 45.4779 129.448 45.4779C124.987 45.4779 121.475 43.9804 118.91 40.9854C116.361 37.9744 115.086 33.8482 115.086 28.6069V26.4801C115.086 23.1346 115.676 20.1873 116.855 17.6383C118.033 15.0894 119.714 13.1378 121.897 11.7837C124.095 10.4136 126.644 9.72856 129.544 9.72856C133.558 9.72856 136.792 10.8039 139.246 12.9546C141.699 15.1053 143.117 18.1242 143.499 22.0114H136.33C136.155 19.7651 135.526 18.1402 134.442 17.1365C133.375 16.1169 131.742 15.6071 129.544 15.6071C127.154 15.6071 125.362 16.4674 124.167 18.188C122.988 19.8926 122.383 22.5451 122.351 26.1456V28.7742C122.351 32.5339 122.916 35.282 124.047 37.0185C125.194 38.755 126.995 39.6233 129.448 39.6233C131.663 39.6233 133.311 39.1214 134.395 38.1178C135.494 37.0982 136.123 35.529 136.283 33.4101H143.452ZM154.994 45H148.064V19.1438H154.994V45ZM147.657 12.4528C147.657 11.4173 148 10.5649 148.685 9.89584C149.386 9.22673 150.334 8.89218 151.529 8.89218C152.707 8.89218 153.647 9.22673 154.348 9.89584C155.049 10.5649 155.4 11.4173 155.4 12.4528C155.4 13.5042 155.041 14.3645 154.324 15.0336C153.624 15.7027 152.692 16.0373 151.529 16.0373C150.366 16.0373 149.426 15.7027 148.709 15.0336C148.008 14.3645 147.657 13.5042 147.657 12.4528ZM168.973 12.7873V19.1438H173.394V24.2099H168.973V37.1141C168.973 38.07 169.156 38.755 169.523 39.1692C169.889 39.5834 170.59 39.7905 171.626 39.7905C172.39 39.7905 173.067 39.7348 173.657 39.6233V44.8566C172.303 45.2708 170.909 45.4779 169.475 45.4779C164.632 45.4779 162.163 43.0325 162.067 38.1417V24.2099H158.291V19.1438H162.067V12.7873H168.973ZM186.896 35.2263L191.675 19.1438H199.083L188.688 49.0146L188.114 50.3767C186.569 53.7541 184.02 55.4428 180.467 55.4428C179.464 55.4428 178.444 55.2915 177.409 54.9888V49.7554L178.46 49.7793C179.766 49.7793 180.738 49.5802 181.375 49.1819C182.029 48.7836 182.538 48.1225 182.905 47.1985L183.717 45.0717L174.661 19.1438H182.092L186.896 35.2263Z" fill="white"/>
<path d="M214.448 45V10.2065H225.154C228.213 10.2065 230.945 10.8995 233.351 12.2855C235.772 13.6556 237.66 15.6151 239.014 18.1641C240.368 20.6971 241.045 23.5806 241.045 26.8147V28.4157C241.045 31.6497 240.376 34.5253 239.038 37.0424C237.716 39.5595 235.844 41.5111 233.422 42.8971C231.001 44.2831 228.269 44.9841 225.226 45H214.448ZM221.617 16.0134V39.2409H225.082C227.886 39.2409 230.029 38.3249 231.511 36.4928C232.992 34.6607 233.749 32.0401 233.781 28.6308V26.7908C233.781 23.2541 233.048 20.5776 231.582 18.7615C230.117 16.9294 227.974 16.0134 225.154 16.0134H221.617ZM257.725 45.4779C253.934 45.4779 250.843 44.315 248.453 41.989C246.08 39.6631 244.893 36.5645 244.893 32.6932V32.0241C244.893 29.4274 245.395 27.1094 246.398 25.0702C247.402 23.0151 248.82 21.4379 250.652 20.3387C252.5 19.2235 254.603 18.6659 256.961 18.6659C260.497 18.6659 263.277 19.7811 265.3 22.0114C267.34 24.2418 268.359 27.4041 268.359 31.4984V34.3182H251.894C252.118 36.0069 252.787 37.361 253.902 38.3806C255.033 39.4002 256.459 39.91 258.179 39.91C260.84 39.91 262.919 38.9462 264.416 37.0185L267.81 40.8181C266.774 42.2837 265.372 43.4308 263.604 44.2592C261.835 45.0717 259.876 45.4779 257.725 45.4779ZM256.937 24.2577C255.567 24.2577 254.451 24.7197 253.591 25.6437C252.747 26.5677 252.205 27.89 251.966 29.6106H261.573V29.0609C261.541 27.5316 261.127 26.3527 260.33 25.5242C259.533 24.6799 258.402 24.2577 256.937 24.2577ZM281.646 36.5645L286.449 19.1438H293.666L284.944 45H278.348L269.626 19.1438H276.843L281.646 36.5645Z" fill="#FAFF02"/>
</svg>
