<svg width="687" height="176" viewBox="0 0 687 176" fill="none" xmlns="http://www.w3.org/2000/svg">
<path d="M34.5376 87.4835H22.1991V115H6.71135V39.8329H34.6409C43.5205 39.8329 50.3695 41.8119 55.1879 45.7699C60.0063 49.7278 62.4155 55.3206 62.4155 62.5482C62.4155 67.6764 61.297 71.9613 59.0599 75.403C56.8572 78.8103 53.5015 81.5293 48.9928 83.5599L65.255 114.277V115H48.6315L34.5376 87.4835ZM22.1991 74.9384H34.6925C38.5816 74.9384 41.5931 73.9575 43.727 71.9957C45.8609 69.9996 46.9278 67.2634 46.9278 63.7873C46.9278 60.2423 45.9125 57.4545 43.8819 55.4239C41.8857 53.3933 38.8054 52.378 34.6409 52.378H22.1991V74.9384ZM89.0028 115H74.0313V59.1409H89.0028V115ZM73.1537 44.6857C73.1537 42.4486 73.8937 40.6073 75.3736 39.1618C76.888 37.7162 78.9358 36.9935 81.5171 36.9935C84.0639 36.9935 86.0946 37.7162 87.6089 39.1618C89.1233 40.6073 89.8804 42.4486 89.8804 44.6857C89.8804 46.9573 89.1061 48.8158 87.5573 50.2613C86.0429 51.7068 84.0295 52.4296 81.5171 52.4296C79.0046 52.4296 76.974 51.7068 75.4252 50.2613C73.9109 48.8158 73.1537 46.9573 73.1537 44.6857ZM122.25 96.7761L132.627 59.1409H148.218L129.374 115H115.125L96.282 59.1409H111.873L122.25 96.7761ZM179.813 116.033C171.621 116.033 164.944 113.52 159.782 108.495C154.654 103.47 152.089 96.7761 152.089 88.4127V86.9672C152.089 81.3572 153.174 76.3495 155.342 71.9441C157.51 67.5043 160.573 64.097 164.531 61.7222C168.524 59.313 173.067 58.1084 178.16 58.1084C185.801 58.1084 191.807 60.5176 196.178 65.336C200.583 70.1544 202.786 76.9862 202.786 85.8314V91.9233H167.216C167.698 95.5715 169.143 98.497 171.552 100.7C173.996 102.902 177.076 104.004 180.793 104.004C186.541 104.004 191.033 101.921 194.268 97.757L201.599 105.965C199.361 109.132 196.333 111.61 192.512 113.4C188.692 115.155 184.459 116.033 179.813 116.033ZM178.109 70.1888C175.149 70.1888 172.74 71.1869 170.881 73.1831C169.057 75.1793 167.887 78.036 167.371 81.753H188.124V80.5656C188.055 77.2616 187.161 74.7147 185.44 72.925C183.719 71.1009 181.275 70.1888 178.109 70.1888ZM242.693 73.1315C240.662 72.8562 238.872 72.7185 237.324 72.7185C231.679 72.7185 227.979 74.6287 226.224 78.449V115H211.304V59.1409H225.398L225.811 65.8007C228.805 60.6725 232.953 58.1084 238.253 58.1084C239.905 58.1084 241.454 58.3321 242.899 58.7796L242.693 73.1315ZM309.909 89.9615C309.324 98.0495 306.33 104.417 300.927 109.063C295.557 113.709 288.468 116.033 279.657 116.033C270.02 116.033 262.431 112.797 256.89 106.327C251.383 99.822 248.63 90.908 248.63 79.5847V74.99C248.63 67.7624 249.903 61.3953 252.45 55.8885C254.997 50.3818 258.628 46.1657 263.343 43.2402C268.093 40.2803 273.599 38.8004 279.863 38.8004C288.536 38.8004 295.523 41.1235 300.823 45.7699C306.124 50.4162 309.187 56.9382 310.013 65.336H294.525C294.146 60.4832 292.787 56.9727 290.446 54.8044C288.141 52.6017 284.613 51.5003 279.863 51.5003C274.701 51.5003 270.829 53.3588 268.247 57.0759C265.701 60.7585 264.393 66.489 264.324 74.2673V79.9461C264.324 88.0686 265.546 94.0055 267.989 97.757C270.467 101.508 274.356 103.384 279.657 103.384C284.441 103.384 288.003 102.3 290.343 100.132C292.718 97.9291 294.078 94.539 294.422 89.9615H309.909ZM334.845 115H319.873V59.1409H334.845V115ZM318.996 44.6857C318.996 42.4486 319.736 40.6073 321.215 39.1618C322.73 37.7162 324.778 36.9935 327.359 36.9935C329.906 36.9935 331.936 37.7162 333.451 39.1618C334.965 40.6073 335.722 42.4486 335.722 44.6857C335.722 46.9573 334.948 48.8158 333.399 50.2613C331.885 51.7068 329.871 52.4296 327.359 52.4296C324.846 52.4296 322.816 51.7068 321.267 50.2613C319.753 48.8158 318.996 46.9573 318.996 44.6857ZM365.046 45.4085V59.1409H374.596V70.0856H365.046V97.9635C365.046 100.029 365.442 101.508 366.233 102.403C367.025 103.298 368.539 103.746 370.776 103.746C372.428 103.746 373.891 103.625 375.164 103.384V114.69C372.239 115.585 369.227 116.033 366.13 116.033C355.667 116.033 350.332 110.749 350.126 100.183V70.0856H341.969V59.1409H350.126V45.4085H365.046ZM403.765 93.8851L414.09 59.1409H430.094L407.637 123.673L406.398 126.616C403.059 133.912 397.553 137.56 389.878 137.56C387.709 137.56 385.507 137.233 383.27 136.58V125.274L385.541 125.325C388.363 125.325 390.463 124.895 391.839 124.035C393.251 123.174 394.352 121.746 395.144 119.75L396.899 115.155L377.333 59.1409H393.388L403.765 93.8851Z" fill="black" fill-opacity="0.31"/>
<path d="M463.29 115V39.8329H486.418C493.026 39.8329 498.929 41.33 504.126 44.3243C509.357 47.2842 513.435 51.5175 516.361 57.0243C519.286 62.4966 520.749 68.7261 520.749 75.7128V79.1717C520.749 86.1584 519.303 92.3707 516.412 97.8086C513.556 103.247 509.512 107.463 504.28 110.457C499.049 113.451 493.146 114.966 486.573 115H463.29ZM478.777 52.378V102.558H486.263C492.32 102.558 496.95 100.579 500.15 96.6212C503.351 92.6633 504.986 87.0016 505.055 79.6364V75.6612C505.055 68.0206 503.472 62.2385 500.305 58.3149C497.139 54.3569 492.51 52.378 486.418 52.378H478.777ZM556.784 116.033C548.592 116.033 541.916 113.52 536.753 108.495C531.625 103.47 529.061 96.7761 529.061 88.4127V86.9672C529.061 81.3572 530.145 76.3495 532.313 71.9441C534.481 67.5043 537.545 64.097 541.503 61.7222C545.495 59.313 550.038 58.1084 555.132 58.1084C562.772 58.1084 568.778 60.5176 573.149 65.336C577.555 70.1544 579.757 76.9862 579.757 85.8314V91.9233H544.187C544.669 95.5715 546.114 98.497 548.524 100.7C550.967 102.902 554.048 104.004 557.765 104.004C563.512 104.004 568.004 101.921 571.239 97.757L578.57 105.965C576.333 109.132 573.304 111.61 569.484 113.4C565.663 115.155 561.43 116.033 556.784 116.033ZM555.08 70.1888C552.12 70.1888 549.711 71.1869 547.853 73.1831C546.028 75.1793 544.858 78.036 544.342 81.753H565.096V80.5656C565.027 77.2616 564.132 74.7147 562.411 72.925C560.69 71.1009 558.247 70.1888 555.08 70.1888ZM608.461 96.7761L618.838 59.1409H634.429L615.586 115H601.337L582.493 59.1409H598.084L608.461 96.7761Z" fill="#040404" fill-opacity="0.33"/>
<path d="M34.5376 70.4835H22.1991V98H6.71135V22.8329H34.6409C43.5205 22.8329 50.3695 24.8119 55.1879 28.7699C60.0063 32.7278 62.4155 38.3206 62.4155 45.5482C62.4155 50.6764 61.297 54.9613 59.0599 58.403C56.8572 61.8103 53.5015 64.5293 48.9928 66.5599L65.255 97.2772V98H48.6315L34.5376 70.4835ZM22.1991 57.9384H34.6925C38.5816 57.9384 41.5931 56.9575 43.727 54.9957C45.8609 52.9996 46.9278 50.2634 46.9278 46.7873C46.9278 43.2423 45.9125 40.4545 43.8819 38.4239C41.8857 36.3933 38.8054 35.378 34.6409 35.378H22.1991V57.9384ZM89.0028 98H74.0313V42.1409H89.0028V98ZM73.1537 27.6857C73.1537 25.4486 73.8937 23.6073 75.3736 22.1618C76.888 20.7162 78.9358 19.9935 81.5171 19.9935C84.0639 19.9935 86.0946 20.7162 87.6089 22.1618C89.1233 23.6073 89.8804 25.4486 89.8804 27.6857C89.8804 29.9573 89.1061 31.8158 87.5573 33.2613C86.0429 34.7068 84.0295 35.4296 81.5171 35.4296C79.0046 35.4296 76.974 34.7068 75.4252 33.2613C73.9109 31.8158 73.1537 29.9573 73.1537 27.6857ZM122.25 79.7761L132.627 42.1409H148.218L129.374 98H115.125L96.282 42.1409H111.873L122.25 79.7761ZM179.813 99.0325C171.621 99.0325 164.944 96.5201 159.782 91.4952C154.654 86.4702 152.089 79.7761 152.089 71.4127V69.9672C152.089 64.3572 153.174 59.3495 155.342 54.9441C157.51 50.5043 160.573 47.097 164.531 44.7222C168.524 42.313 173.067 41.1084 178.16 41.1084C185.801 41.1084 191.807 43.5176 196.178 48.336C200.583 53.1544 202.786 59.9862 202.786 68.8314V74.9233H167.216C167.698 78.5715 169.143 81.497 171.552 83.6997C173.996 85.9024 177.076 87.0037 180.793 87.0037C186.541 87.0037 191.033 84.9215 194.268 80.757L201.599 88.9655C199.361 92.1319 196.333 94.6099 192.512 96.3996C188.692 98.1549 184.459 99.0325 179.813 99.0325ZM178.109 53.1888C175.149 53.1888 172.74 54.1869 170.881 56.1831C169.057 58.1793 167.887 61.036 167.371 64.753H188.124V63.5656C188.055 60.2616 187.161 57.7147 185.44 55.925C183.719 54.1009 181.275 53.1888 178.109 53.1888ZM242.693 56.1315C240.662 55.8562 238.872 55.7185 237.324 55.7185C231.679 55.7185 227.979 57.6287 226.224 61.449V98H211.304V42.1409H225.398L225.811 48.8007C228.805 43.6725 232.953 41.1084 238.253 41.1084C239.905 41.1084 241.454 41.3321 242.899 41.7796L242.693 56.1315ZM309.909 72.9615C309.324 81.0495 306.33 87.4167 300.927 92.063C295.557 96.7094 288.468 99.0325 279.657 99.0325C270.02 99.0325 262.431 95.7973 256.89 89.3269C251.383 82.822 248.63 73.908 248.63 62.5847V57.99C248.63 50.7624 249.903 44.3953 252.45 38.8885C254.997 33.3818 258.628 29.1657 263.343 26.2402C268.093 23.2803 273.599 21.8004 279.863 21.8004C288.536 21.8004 295.523 24.1235 300.823 28.7699C306.124 33.4162 309.187 39.9382 310.013 48.336H294.525C294.146 43.4832 292.787 39.9727 290.446 37.8044C288.141 35.6017 284.613 34.5003 279.863 34.5003C274.701 34.5003 270.829 36.3588 268.247 40.0759C265.701 43.7585 264.393 49.489 264.324 57.2673V62.9461C264.324 71.0686 265.546 77.0055 267.989 80.757C270.467 84.5085 274.356 86.3842 279.657 86.3842C284.441 86.3842 288.003 85.3001 290.343 83.1318C292.718 80.9291 294.078 77.539 294.422 72.9615H309.909ZM334.845 98H319.873V42.1409H334.845V98ZM318.996 27.6857C318.996 25.4486 319.736 23.6073 321.215 22.1618C322.73 20.7162 324.778 19.9935 327.359 19.9935C329.906 19.9935 331.936 20.7162 333.451 22.1618C334.965 23.6073 335.722 25.4486 335.722 27.6857C335.722 29.9573 334.948 31.8158 333.399 33.2613C331.885 34.7068 329.871 35.4296 327.359 35.4296C324.846 35.4296 322.816 34.7068 321.267 33.2613C319.753 31.8158 318.996 29.9573 318.996 27.6857ZM365.046 28.4085V42.1409H374.596V53.0856H365.046V80.9635C365.046 83.0285 365.442 84.5085 366.233 85.4033C367.025 86.2982 368.539 86.7456 370.776 86.7456C372.428 86.7456 373.891 86.6251 375.164 86.3842V97.6902C372.239 98.5851 369.227 99.0325 366.13 99.0325C355.667 99.0325 350.332 93.7495 350.126 83.1834V53.0856H341.969V42.1409H350.126V28.4085H365.046ZM403.765 76.8851L414.09 42.1409H430.094L407.637 106.673L406.398 109.616C403.059 116.912 397.553 120.56 389.878 120.56C387.709 120.56 385.507 120.233 383.27 119.58V108.274L385.541 108.325C388.363 108.325 390.463 107.895 391.839 107.035C393.251 106.174 394.352 104.746 395.144 102.75L396.899 98.1549L377.333 42.1409H393.388L403.765 76.8851Z" fill="white"/>
<path d="M463.29 98V22.8329H486.418C493.026 22.8329 498.929 24.33 504.126 27.3243C509.357 30.2842 513.435 34.5175 516.361 40.0243C519.286 45.4966 520.749 51.7261 520.749 58.7128V62.1717C520.749 69.1584 519.303 75.3707 516.412 80.8086C513.556 86.2465 509.512 90.4626 504.28 93.4569C499.049 96.4512 493.146 97.9656 486.573 98H463.29ZM478.777 35.378V85.5582H486.263C492.32 85.5582 496.95 83.5792 500.15 79.6212C503.351 75.6633 504.986 70.0016 505.055 62.6364V58.6612C505.055 51.0206 503.472 45.2385 500.305 41.3149C497.139 37.3569 492.51 35.378 486.418 35.378H478.777ZM556.784 99.0325C548.592 99.0325 541.916 96.5201 536.753 91.4952C531.625 86.4702 529.061 79.7761 529.061 71.4127V69.9672C529.061 64.3572 530.145 59.3495 532.313 54.9441C534.481 50.5043 537.545 47.097 541.503 44.7222C545.495 42.313 550.038 41.1084 555.132 41.1084C562.772 41.1084 568.778 43.5176 573.149 48.336C577.555 53.1544 579.757 59.9862 579.757 68.8314V74.9233H544.187C544.669 78.5715 546.114 81.497 548.524 83.6997C550.967 85.9024 554.048 87.0037 557.765 87.0037C563.512 87.0037 568.004 84.9215 571.239 80.757L578.57 88.9655C576.333 92.1319 573.304 94.6099 569.484 96.3996C565.663 98.1549 561.43 99.0325 556.784 99.0325ZM555.08 53.1888C552.12 53.1888 549.711 54.1869 547.853 56.1831C546.028 58.1793 544.858 61.036 544.342 64.753H565.096V63.5656C565.027 60.2616 564.132 57.7147 562.411 55.925C560.69 54.1009 558.247 53.1888 555.08 53.1888ZM608.461 79.7761L618.838 42.1409H634.429L615.586 98H601.337L582.493 42.1409H598.084L608.461 79.7761Z" fill="#FAFF02"/>
<g filter="url(#filter0_i)">
<rect x="17" y="141" width="365" height="35" rx="17.5" fill="#FAFF02"/>
<path d="M198 151H186C184.895 151 184 151.895 184 153V165C184 166.105 184.895 167 186 167H198C199.105 167 200 166.105 200 165V153C200 151.895 199.105 151 198 151Z" stroke="black" stroke-width="2" stroke-linecap="round" stroke-linejoin="round"/>
<path d="M195 156H189V162H195V156Z" stroke="black" stroke-width="2" stroke-linecap="round" stroke-linejoin="round"/>
<path d="M189 148V151" stroke="black" stroke-width="2" stroke-linecap="round" stroke-linejoin="round"/>
<path d="M195 148V151" stroke="black" stroke-width="2" stroke-linecap="round" stroke-linejoin="round"/>
<path d="M189 167V170" stroke="black" stroke-width="2" stroke-linecap="round" stroke-linejoin="round"/>
<path d="M195 167V170" stroke="black" stroke-width="2" stroke-linecap="round" stroke-linejoin="round"/>
<path d="M200 156H203" stroke="black" stroke-width="2" stroke-linecap="round" stroke-linejoin="round"/>
<path d="M200 161H203" stroke="black" stroke-width="2" stroke-linecap="round" stroke-linejoin="round"/>
<path d="M181 156H184" stroke="black" stroke-width="2" stroke-linecap="round" stroke-linejoin="round"/>
<path d="M181 161H184" stroke="black" stroke-width="2" stroke-linecap="round" stroke-linejoin="round"/>
<path d="M289.13 148L289 163C289 163.53 289.211 164.039 289.586 164.414C289.961 164.789 290.47 165 291 165H306" stroke="black" stroke-width="2" stroke-linecap="round" stroke-linejoin="round"/>
<path d="M284 153.13L299 153C299.53 153 300.039 153.211 300.414 153.586C300.789 153.961 301 154.47 301 155V170" stroke="black" stroke-width="2" stroke-linecap="round" stroke-linejoin="round"/>
<path d="M83.13 148L83 163C83 163.53 83.2107 164.039 83.5858 164.414C83.9609 164.789 84.4696 165 85 165H100" stroke="black" stroke-width="2" stroke-linecap="round" stroke-linejoin="round"/>
<path d="M78 153.13L93 153C93.5304 153 94.0391 153.211 94.4142 153.586C94.7893 153.961 95 154.47 95 155V170" stroke="black" stroke-width="2" stroke-linecap="round" stroke-linejoin="round"/>
</g>
<defs>
<filter id="filter0_i" x="17" y="141" width="365" height="39" filterUnits="userSpaceOnUse" color-interpolation-filters="sRGB">
<feFlood flood-opacity="0" result="BackgroundImageFix"/>
<feBlend mode="normal" in="SourceGraphic" in2="BackgroundImageFix" result="shape"/>
<feColorMatrix in="SourceAlpha" type="matrix" values="0 0 0 0 0 0 0 0 0 0 0 0 0 0 0 0 0 0 127 0" result="hardAlpha"/>
<feOffset dy="4"/>
<feGaussianBlur stdDeviation="2"/>
<feComposite in2="hardAlpha" operator="arithmetic" k2="-1" k3="1"/>
<feColorMatrix type="matrix" values="0 0 0 0 0 0 0 0 0 0 0 0 0 0 0 0 0 0 0.25 0"/>
<feBlend mode="normal" in2="shape" result="effect1_innerShadow"/>
</filter>
</defs>
</svg>
